# xmcd
#
# Track frame offsets: 
#        150
#        27515
#        41752
#        64797
#        84645
#        104642
#        127935
#        157075
#
# Disc length: 2306 seconds
#
# Revision: 0
# Processed by: cddbd v1.5.2PL0 Copyright (c) Steve Scherf et al.
# Submitted via: ExactAudioCopy v0.99pb5
#
DISCID=6c090008
DTITLE=The Super Disco Band - The Super Disco Band
DYEAR=1996
DGENRE=Disco
TTITLE0=A Song For You
TTITLE1=Private Party
TTITLE2=Fire And Passion
TTITLE3=Hot Grease
TTITLE4=Bedside Manner
TTITLE5=Disco Symphony
TTITLE6=Clear Water
TTITLE7=Super Disco
EXTD=
EXTT0=
EXTT1=
EXTT2=
EXTT3=
EXTT4=
EXTT5=
EXTT6=
EXTT7=
PLAYORDER=
